<?xml version="1.0" encoding="UTF-8" standalone="no"?>
<svg
   xmlns:dc="http://purl.org/dc/elements/1.1/"
   xmlns:cc="http://creativecommons.org/ns#"
   xmlns:rdf="http://www.w3.org/1999/02/22-rdf-syntax-ns#"
   xmlns:svg="http://www.w3.org/2000/svg"
   xmlns="http://www.w3.org/2000/svg"
   xmlns:xlink="http://www.w3.org/1999/xlink"
   xmlns:sodipodi="http://sodipodi.sourceforge.net/DTD/sodipodi-0.dtd"
   xmlns:inkscape="http://www.inkscape.org/namespaces/inkscape"
   enable-background="new 0 0 32 32"
   height="16"
   id="Layer_1"
   version="1.1"
   viewBox="0 0 16 16"
   width="16"
   xml:space="preserve"
   inkscape:version="0.92.5 (2060ec1f9f, 2020-04-08)"
   sodipodi:docname="button-close-bg-active.svg"><metadata
     id="metadata26"><rdf:RDF><cc:Work
         rdf:about=""><dc:format>image/svg+xml</dc:format><dc:type
           rdf:resource="http://purl.org/dc/dcmitype/StillImage" /><dc:title></dc:title></cc:Work></rdf:RDF></metadata><defs
     id="defs24"><linearGradient
       id="bubble"
       inkscape:collect="always"><stop
         id="stop1003"
         offset="0"
         style="stop-color:#eeeeec;stop-opacity:1" /><stop
         id="stop1005"
         offset="1"
         style="stop-color:#3a587a;stop-opacity:1" /></linearGradient><radialGradient
       inkscape:collect="always"
       xlink:href="#linearGradient2545"
       id="radialGradient2517"
       gradientUnits="userSpaceOnUse"
       cx="113.66179"
       cy="-323.13779"
       fx="113.66179"
       fy="-323.13779"
       r="14.71433" /><linearGradient
       inkscape:collect="always"
       id="linearGradient2545"><stop
         style="stop-color:#bdb8b6;stop-opacity:1"
         offset="0"
         id="stop2541" /><stop
         style="stop-color:#cb9393;stop-opacity:1"
         offset="1"
         id="stop2543" /></linearGradient><radialGradient
       inkscape:collect="always"
       xlink:href="#linearGradient2545"
       id="radialGradient2519"
       gradientUnits="userSpaceOnUse"
       gradientTransform="matrix(1,0,0,0.68411285,0,-103.54338)"
       cx="113.66173"
       cy="-327.78601"
       fx="113.66173"
       fy="-327.78601"
       r="14.714197" /><radialGradient
       inkscape:collect="always"
       xlink:href="#linearGradient2545"
       id="radialGradient2523"
       gradientUnits="userSpaceOnUse"
       gradientTransform="matrix(1,0,0,0.6942816,0,-97.413978)"
       cx="113.66173"
       cy="-318.63956"
       fx="113.66173"
       fy="-318.63956"
       r="14.714197" /><linearGradient
       inkscape:collect="always"
       xlink:href="#bubble"
       id="linearGradient1402"
       gradientUnits="userSpaceOnUse"
       gradientTransform="matrix(1.2261941,0,0,1.2261941,245.91551,-14.287461)"
       x1="98.94754"
       y1="-327.78601"
       x2="128.37593"
       y2="-327.78601" /></defs><sodipodi:namedview
     pagecolor="#ffffff"
     bordercolor="#666666"
     borderopacity="1"
     objecttolerance="10"
     gridtolerance="10"
     guidetolerance="10"
     inkscape:pageopacity="0"
     inkscape:pageshadow="2"
     inkscape:window-width="1366"
     inkscape:window-height="705"
     id="namedview22"
     showgrid="true"
     inkscape:zoom="16"
     inkscape:cx="3.263651"
     inkscape:cy="11.658203"
     inkscape:window-x="0"
     inkscape:window-y="0"
     inkscape:window-maximized="1"
     inkscape:current-layer="Layer_1"
     inkscape:snap-bbox="true"
     inkscape:bbox-paths="true"
     inkscape:bbox-nodes="true"
     inkscape:snap-bbox-edge-midpoints="true"><inkscape:grid
       type="xygrid"
       id="grid3003"
       empspacing="5"
       visible="true"
       enabled="true"
       snapvisiblegridlinesonly="true" /></sodipodi:namedview><g
     transform="translate(-419.87498,174.8943)"
     style="display:inline"
     id="titlebutton-close-active-dark"
     inkscape:label="#g2662"><g
       style="display:inline"
       transform="matrix(0.61538464,0,0,0.61538464,422.49045,-17.407103)"
       id="g2477"
       inkscape:label="#g2369"><path
         inkscape:connector-curvature="0"
         style="opacity:0;fill:#babdb7;fill-opacity:0;fill-rule:nonzero;stroke:#fce94f;stroke-width:0;stroke-miterlimit:4;stroke-dasharray:none;stroke-opacity:1"
         d="m -4.050746,-255.91669 h 25.601199 c 0.110467,0 0.1994,0.0889 0.1994,0.1994 v 25.6012 c 0,0.11047 -0.08893,0.1994 -0.1994,0.1994 H -4.050746 c -0.1104673,0 -0.1993994,-0.0889 -0.1993994,-0.1994 v -25.6012 c 0,-0.11046 0.088932,-0.1994 0.1993994,-0.1994 z"
         id="path2463" /><g
         style="stroke-width:1.08333337"
         transform="matrix(0.92307693,0,0,0.92307693,-0.24999947,-17.762803)"
         id="g2475"><g
           id="g2471"
           style="display:inline;stroke-width:1.22619426"
           transform="matrix(0.88349247,0,0,0.88349247,-90.669328,41.573356)"
           inkscape:label="#g3466"><path
             inkscape:connector-curvature="0"
             style="opacity:1;fill:url(#radialGradient2517);fill-opacity:1;fill-rule:nonzero;stroke:#030303;stroke-width:0;stroke-miterlimit:4;stroke-dasharray:none;stroke-opacity:0"
             d="m 128.37612,-323.13779 a 14.71433,14.71433 0 0 1 -14.71433,14.71433 14.71433,14.71433 0 0 1 -14.714331,-14.71433 14.71433,14.71433 0 0 1 14.714331,-14.71433 14.71433,14.71433 0 0 1 14.71433,14.71433 z"
             id="path2465" /><path
             inkscape:connector-curvature="0"
             style="opacity:1;fill:url(#radialGradient2519);fill-opacity:1;fill-rule:nonzero;stroke:url(#linearGradient1402);stroke-width:0;stroke-miterlimit:4;stroke-dasharray:none;stroke-opacity:1"
             d="m 113.66205,-337.85217 a 14.71433,14.71433 0 0 0 -14.714512,14.71451 14.71433,14.71433 0 0 0 1.038555,5.41783 14.71433,14.71433 0 0 1 13.675957,-9.31932 14.71433,14.71433 0 0 1 13.67533,9.29543 14.71433,14.71433 0 0 0 1.03855,-5.39394 14.71433,14.71433 0 0 0 -14.71388,-14.71451 z"
             id="path2467" /><path
             inkscape:connector-curvature="0"
             style="opacity:1;fill:url(#radialGradient2523);fill-opacity:1;fill-rule:nonzero;stroke:#030303;stroke-width:0;stroke-miterlimit:4;stroke-dasharray:none;stroke-opacity:0"
             d="m 100.10428,-328.85536 a 14.71433,14.71433 0 0 0 -1.156742,5.7177 14.71433,14.71433 0 0 0 14.714512,14.71389 14.71433,14.71433 0 0 0 14.71388,-14.71389 14.71433,14.71433 0 0 0 -1.15674,-5.6825 14.71433,14.71433 0 0 1 -13.55714,8.99744 14.71433,14.71433 0 0 1 -13.55777,-9.03264 z"
             id="path2469" /></g><g
           style="fill:#eeeeec;stroke-width:1.34861267"
           transform="matrix(0.8032946,0,0,0.8032946,0.7101366,-3.6305755)"
           id="g2473" /></g></g><path
       style="display:inline;fill:#1a1e22;fill-opacity:1;stroke:#ef2929;stroke-width:0;stroke-linecap:butt;stroke-linejoin:miter;stroke-miterlimit:4;stroke-dasharray:none;stroke-opacity:1"
       d="m 424.32743,-170.42485 c 0,0 -0.0866,1.29728 0.27206,1.65591 l 1.86445,1.86444 c -0.81952,0.81952 -1.86444,1.86444 -1.86444,1.86444 -0.3619,0.36191 -0.24169,1.68628 -0.2417,1.68628 0,0 1.29728,0.0865 1.65591,-0.27207 l 1.86444,-1.86444 1.81886,1.81887 c 0.37246,0.37246 1.70149,0.31764 1.70149,0.31764 0,0 0.0884,-1.35623 -0.28727,-1.73186 l -1.81887,-1.81886 1.81887,-1.81887 c 0.37246,-0.37246 0.31765,-1.70148 0.31764,-1.70148 0,0 -1.35623,-0.0884 -1.73185,0.28727 -0.13412,0.13411 -0.9902,0.99019 -1.81887,1.81887 l -1.86444,-1.86445 c -0.36191,-0.3619 -1.68628,-0.24169 -1.68628,-0.24169 z"
       id="path2479"
       inkscape:connector-curvature="0" /></g></svg>